<svg height="64" preserveAspectRatio="none" viewBox="0 0 64 64" width="64" xmlns="http://www.w3.org/2000/svg"><path d="m33.3916016 59.9013672c-.2441406 0-.4873047-.0039063-.7319336-.0107422-14.8041992-.4472656-25.6123047-12.578125-25.140625-28.2182617.2241211-7.4194336 3.5253906-14.4033203 9.296875-19.6640625 5.621582-5.1245117 13.0444336-7.9165039 20.3745117-7.7163086 1.3798828.0419922 2.4648438 1.1943359 2.4238281 2.5742188-.0419922 1.3798828-1.2089844 2.4350586-2.5742188 2.4238281-6.0478516-.1992188-12.1855469 2.1547852-16.855957 6.4130859-4.7617188 4.3408203-7.484375 10.065918-7.6669922 16.1196289-.3862305 12.7905273 8.3383789 22.7084961 20.293457 23.0698242 5.0029297.1513672 9.7480469-1.6533203 13.3857422-5.0771484 3.6376953-3.4257813 5.7236328-8.0615234 5.8740234-13.0556641.125-4.1450195-1.3710938-8.090332-4.2138672-11.109375-2.8417969-3.019043-6.6904297-4.7509766-10.8349609-4.8754883-3.4970703-.1025391-7.1191406 1.2055664-9.940918 3.5966797-2.8652344 2.4287109-4.4980469 5.5859375-4.5976563 8.8911133-.1748045 5.7998047 4.4008791 10.6601563 10.2001955 10.834961 2.4106445.0810547 4.6225586-.625 6.2329102-1.9658203s2.4960938-3.2148438 2.5625-5.4189453c.0527344-1.7216797-.4287109-3.1542969-1.3896484-4.1455078-.7509766-.7739258-1.7871094-1.2358398-2.7734375-1.2358398-3.3154298-.0000001-3.3154298 1.0302733-3.3154298 1.4184569 0 1.3808594-1.1191406 2.5-2.5 2.5s-2.5-1.1191406-2.5-2.5c0-1.5058594.5996094-6.418457 8.3154297-6.418457 2.3447266 0 4.6640625 1.0039063 6.3623047 2.7539063 1.8974609 1.9560547 2.8916016 4.7182617 2.7988281 7.777832-.109375 3.6240234-1.6582031 6.8603516-4.3613281 9.1113281-2.5498047 2.1230469-5.9472656 3.2363281-9.5830078 3.1210938-8.5546875-.2578125-15.3051758-7.4287109-15.0473633-15.9833984.1430664-4.7397461 2.402832-9.1987305 6.3632813-12.5551758 3.7524414-3.1806641 8.6225586-4.9291992 13.3237305-4.7802734 5.4794922.1650391 10.5673828 2.4545898 14.3251953 6.4462891 3.7587891 3.9916992 5.7363281 9.2075195 5.5712891 14.6870117-.1904297 6.3291016-2.8349609 12.2050781-7.4453125 16.5449219-4.4316407 4.1728514-10.1718751 6.4462889-16.2314454 6.4462889z" fill="#036eb5"/></svg>